<?xml version="1.0" standalone="no"?>
<svg xmlns:xlink="http://www.w3.org/1999/xlink" id="wave" style="transform:rotate(180deg); transition: 0.3s" viewBox="0 0 1440 490" version="1.1" xmlns="http://www.w3.org/2000/svg"><defs><linearGradient id="sw-gradient-0" x1="0" x2="0" y1="1" y2="0"><stop stop-color="rgba(135.447, 62, 243, 1)" offset="0%"/><stop stop-color="rgba(233.992, 11, 255, 1)" offset="100%"/></linearGradient></defs><path style="transform:translate(0, 0px); opacity:1" fill="url(#sw-gradient-0)" d="M0,245L21.8,228.7C43.6,212,87,180,131,147C174.5,114,218,82,262,57.2C305.5,33,349,16,393,40.8C436.4,65,480,131,524,196C567.3,261,611,327,655,318.5C698.2,310,742,229,785,236.8C829.1,245,873,343,916,334.8C960,327,1004,212,1047,138.8C1090.9,65,1135,33,1178,49C1221.8,65,1265,131,1309,138.8C1352.7,147,1396,98,1440,138.8C1483.6,180,1527,310,1571,343C1614.5,376,1658,310,1702,269.5C1745.5,229,1789,212,1833,187.8C1876.4,163,1920,131,1964,163.3C2007.3,196,2051,294,2095,318.5C2138.2,343,2182,294,2225,261.3C2269.1,229,2313,212,2356,228.7C2400,245,2444,294,2487,310.3C2530.9,327,2575,310,2618,302.2C2661.8,294,2705,294,2749,261.3C2792.7,229,2836,163,2880,147C2923.6,131,2967,163,3011,147C3054.5,131,3098,65,3120,32.7L3141.8,0L3141.8,490L3120,490C3098.2,490,3055,490,3011,490C2967.3,490,2924,490,2880,490C2836.4,490,2793,490,2749,490C2705.5,490,2662,490,2618,490C2574.5,490,2531,490,2487,490C2443.6,490,2400,490,2356,490C2312.7,490,2269,490,2225,490C2181.8,490,2138,490,2095,490C2050.9,490,2007,490,1964,490C1920,490,1876,490,1833,490C1789.1,490,1745,490,1702,490C1658.2,490,1615,490,1571,490C1527.3,490,1484,490,1440,490C1396.4,490,1353,490,1309,490C1265.5,490,1222,490,1178,490C1134.5,490,1091,490,1047,490C1003.6,490,960,490,916,490C872.7,490,829,490,785,490C741.8,490,698,490,655,490C610.9,490,567,490,524,490C480,490,436,490,393,490C349.1,490,305,490,262,490C218.2,490,175,490,131,490C87.3,490,44,490,22,490L0,490Z"/><defs><linearGradient id="sw-gradient-1" x1="0" x2="0" y1="1" y2="0"><stop stop-color="rgba(129.316, 62, 243, 1)" offset="0%"/><stop stop-color="rgba(11, 242.602, 255, 1)" offset="100%"/></linearGradient></defs><path style="transform:translate(0, 50px); opacity:0.9" fill="url(#sw-gradient-1)" d="M0,147L21.8,171.5C43.6,196,87,245,131,228.7C174.5,212,218,131,262,138.8C305.5,147,349,245,393,310.3C436.4,376,480,408,524,416.5C567.3,425,611,408,655,383.8C698.2,359,742,327,785,269.5C829.1,212,873,131,916,114.3C960,98,1004,147,1047,204.2C1090.9,261,1135,327,1178,294C1221.8,261,1265,131,1309,89.8C1352.7,49,1396,98,1440,155.2C1483.6,212,1527,278,1571,269.5C1614.5,261,1658,180,1702,179.7C1745.5,180,1789,261,1833,277.7C1876.4,294,1920,245,1964,196C2007.3,147,2051,98,2095,106.2C2138.2,114,2182,180,2225,236.8C2269.1,294,2313,343,2356,310.3C2400,278,2444,163,2487,114.3C2530.9,65,2575,82,2618,89.8C2661.8,98,2705,98,2749,114.3C2792.7,131,2836,163,2880,171.5C2923.6,180,2967,163,3011,196C3054.5,229,3098,310,3120,351.2L3141.8,392L3141.8,490L3120,490C3098.2,490,3055,490,3011,490C2967.3,490,2924,490,2880,490C2836.4,490,2793,490,2749,490C2705.5,490,2662,490,2618,490C2574.5,490,2531,490,2487,490C2443.6,490,2400,490,2356,490C2312.7,490,2269,490,2225,490C2181.8,490,2138,490,2095,490C2050.9,490,2007,490,1964,490C1920,490,1876,490,1833,490C1789.1,490,1745,490,1702,490C1658.2,490,1615,490,1571,490C1527.3,490,1484,490,1440,490C1396.4,490,1353,490,1309,490C1265.5,490,1222,490,1178,490C1134.5,490,1091,490,1047,490C1003.6,490,960,490,916,490C872.7,490,829,490,785,490C741.8,490,698,490,655,490C610.9,490,567,490,524,490C480,490,436,490,393,490C349.1,490,305,490,262,490C218.2,490,175,490,131,490C87.3,490,44,490,22,490L0,490Z"/></svg>