<?xml version="1.0" standalone="no"?>
<svg xmlns:xlink="http://www.w3.org/1999/xlink" id="wave" style="transform:rotate(0deg); transition: 0.3s" viewBox="0 0 1440 490" version="1.1" xmlns="http://www.w3.org/2000/svg"><defs><linearGradient id="sw-gradient-0" x1="0" x2="0" y1="1" y2="0"><stop stop-color="rgba(135.447, 62, 243, 1)" offset="0%"/><stop stop-color="rgba(233.992, 11, 255, 1)" offset="100%"/></linearGradient></defs><path style="transform:translate(0, 0px); opacity:1" fill="url(#sw-gradient-0)" d="M0,294L21.8,269.5C43.6,245,87,196,131,196C174.5,196,218,245,262,294C305.5,343,349,392,393,351.2C436.4,310,480,180,524,179.7C567.3,180,611,310,655,318.5C698.2,327,742,212,785,163.3C829.1,114,873,131,916,155.2C960,180,1004,212,1047,253.2C1090.9,294,1135,343,1178,310.3C1221.8,278,1265,163,1309,130.7C1352.7,98,1396,147,1440,187.8C1483.6,229,1527,261,1571,285.8C1614.5,310,1658,327,1702,351.2C1745.5,376,1789,408,1833,359.3C1876.4,310,1920,180,1964,138.8C2007.3,98,2051,147,2095,138.8C2138.2,131,2182,65,2225,73.5C2269.1,82,2313,163,2356,204.2C2400,245,2444,245,2487,261.3C2530.9,278,2575,310,2618,326.7C2661.8,343,2705,343,2749,326.7C2792.7,310,2836,278,2880,294C2923.6,310,2967,376,3011,351.2C3054.5,327,3098,212,3120,155.2L3141.8,98L3141.8,490L3120,490C3098.2,490,3055,490,3011,490C2967.3,490,2924,490,2880,490C2836.4,490,2793,490,2749,490C2705.5,490,2662,490,2618,490C2574.5,490,2531,490,2487,490C2443.6,490,2400,490,2356,490C2312.7,490,2269,490,2225,490C2181.8,490,2138,490,2095,490C2050.9,490,2007,490,1964,490C1920,490,1876,490,1833,490C1789.1,490,1745,490,1702,490C1658.2,490,1615,490,1571,490C1527.3,490,1484,490,1440,490C1396.4,490,1353,490,1309,490C1265.5,490,1222,490,1178,490C1134.5,490,1091,490,1047,490C1003.6,490,960,490,916,490C872.7,490,829,490,785,490C741.8,490,698,490,655,490C610.9,490,567,490,524,490C480,490,436,490,393,490C349.1,490,305,490,262,490C218.2,490,175,490,131,490C87.3,490,44,490,22,490L0,490Z"/><defs><linearGradient id="sw-gradient-1" x1="0" x2="0" y1="1" y2="0"><stop stop-color="rgba(129.316, 62, 243, 1)" offset="0%"/><stop stop-color="rgba(11, 242.602, 255, 1)" offset="100%"/></linearGradient></defs><path style="transform:translate(0, 50px); opacity:0.9" fill="url(#sw-gradient-1)" d="M0,0L21.8,32.7C43.6,65,87,131,131,163.3C174.5,196,218,196,262,220.5C305.5,245,349,294,393,318.5C436.4,343,480,343,524,310.3C567.3,278,611,212,655,163.3C698.2,114,742,82,785,130.7C829.1,180,873,310,916,343C960,376,1004,310,1047,261.3C1090.9,212,1135,180,1178,212.3C1221.8,245,1265,343,1309,392C1352.7,441,1396,441,1440,432.8C1483.6,425,1527,408,1571,343C1614.5,278,1658,163,1702,171.5C1745.5,180,1789,310,1833,359.3C1876.4,408,1920,376,1964,334.8C2007.3,294,2051,245,2095,236.8C2138.2,229,2182,261,2225,236.8C2269.1,212,2313,131,2356,155.2C2400,180,2444,310,2487,351.2C2530.9,392,2575,343,2618,334.8C2661.8,327,2705,359,2749,359.3C2792.7,359,2836,327,2880,318.5C2923.6,310,2967,327,3011,343C3054.5,359,3098,376,3120,383.8L3141.8,392L3141.8,490L3120,490C3098.2,490,3055,490,3011,490C2967.3,490,2924,490,2880,490C2836.4,490,2793,490,2749,490C2705.5,490,2662,490,2618,490C2574.5,490,2531,490,2487,490C2443.6,490,2400,490,2356,490C2312.7,490,2269,490,2225,490C2181.8,490,2138,490,2095,490C2050.9,490,2007,490,1964,490C1920,490,1876,490,1833,490C1789.1,490,1745,490,1702,490C1658.2,490,1615,490,1571,490C1527.3,490,1484,490,1440,490C1396.4,490,1353,490,1309,490C1265.5,490,1222,490,1178,490C1134.5,490,1091,490,1047,490C1003.6,490,960,490,916,490C872.7,490,829,490,785,490C741.8,490,698,490,655,490C610.9,490,567,490,524,490C480,490,436,490,393,490C349.1,490,305,490,262,490C218.2,490,175,490,131,490C87.3,490,44,490,22,490L0,490Z"/></svg>